<svg width="15" height="13" viewBox="0 0 15 13" fill="none" xmlns="http://www.w3.org/2000/svg">
<path d="M7.5 7.50586L2.45312 12.5527C2.27995 12.7259 2.06966 12.8125 1.82227 12.8125C1.57487 12.8125 1.36458 12.7259 1.19141 12.5527L0.375 11.6992C0.201823 11.526 0.115234 11.3158 0.115234 11.0684C0.115234 10.821 0.201823 10.6107 0.375 10.4375L3.9375 6.875L0.375 3.3125C0.201823 3.13932 0.115234 2.92904 0.115234 2.68164C0.115234 2.43424 0.201823 2.22396 0.375 2.05078L1.19141 1.19727C1.36458 1.02409 1.57487 0.9375 1.82227 0.9375C2.06966 0.9375 2.27995 1.02409 2.45312 1.19727L7.5 6.24414C7.67318 6.41732 7.75977 6.6276 7.75977 6.875C7.75977 7.1224 7.67318 7.33268 7.5 7.50586ZM14.625 6.24414L9.57812 1.19727C9.40495 1.02409 9.19466 0.9375 8.94727 0.9375C8.69987 0.9375 8.48958 1.02409 8.31641 1.19727L7.5 2.05078C7.32682 2.22396 7.24023 2.43424 7.24023 2.68164C7.24023 2.92904 7.32682 3.12695 7.5 3.27539L11.0625 6.875L7.5 10.4375C7.32682 10.6107 7.24023 10.821 7.24023 11.0684C7.24023 11.3158 7.32682 11.526 7.5 11.6992L8.31641 12.5527C8.48958 12.7259 8.69987 12.8125 8.94727 12.8125C9.19466 12.8125 9.40495 12.7259 9.57812 12.5527L14.625 7.50586C14.7982 7.33268 14.8848 7.1224 14.8848 6.875C14.8848 6.6276 14.7982 6.41732 14.625 6.24414Z" fill="black"/>
<path d="M7.5 7.50586L8.20711 8.21297L7.5 7.50586ZM2.45312 12.5527L3.16023 13.2598L2.45312 12.5527ZM1.19141 12.5527L0.468764 13.244L0.476444 13.252L0.484299 13.2598L1.19141 12.5527ZM0.375 11.6992L1.09764 11.008L1.08996 11L1.08211 10.9921L0.375 11.6992ZM3.9375 6.875L4.64461 7.58211L5.35171 6.875L4.64461 6.16789L3.9375 6.875ZM0.375 3.3125L-0.332107 4.01961L0.375 3.3125ZM0.375 2.05078L1.08211 2.75789L1.08996 2.75003L1.09764 2.742L0.375 2.05078ZM1.19141 1.19727L0.484299 0.490159L0.476444 0.498015L0.468764 0.506043L1.19141 1.19727ZM2.45312 1.19727L1.74602 1.90437L2.45312 1.19727ZM7.5 6.24414L8.20711 5.53703L7.5 6.24414ZM14.625 6.24414L13.9179 6.95125L14.625 6.24414ZM8.31641 1.19727L7.6093 0.490159L7.60144 0.498015L7.59376 0.506043L8.31641 1.19727ZM7.5 2.05078L8.20711 2.75789L8.21496 2.75003L8.22264 2.742L7.5 2.05078ZM7.5 3.27539L8.21076 2.57196L8.18192 2.54282L8.15079 2.51613L7.5 3.27539ZM11.0625 6.875L11.7696 7.58211L12.4731 6.87865L11.7733 6.17157L11.0625 6.875ZM7.5 10.4375L6.79289 9.73039L7.5 10.4375ZM7.5 11.6992L8.22264 11.008L8.21496 11L8.20711 10.9921L7.5 11.6992ZM8.31641 12.5527L7.59376 13.244L7.60144 13.252L7.6093 13.2598L8.31641 12.5527ZM9.57812 12.5527L10.2852 13.2598L9.57812 12.5527ZM14.625 7.50586L13.9179 6.79875L14.625 7.50586ZM6.79289 6.79875L1.74602 11.8456L3.16023 13.2598L8.20711 8.21297L6.79289 6.79875ZM1.74602 11.8456C1.74498 11.8467 1.74798 11.8435 1.75544 11.8385C1.76303 11.8333 1.77302 11.8277 1.78478 11.8229C1.81066 11.8122 1.8269 11.8125 1.82227 11.8125V13.8125C2.33185 13.8125 2.79739 13.6227 3.16023 13.2598L1.74602 11.8456ZM1.82227 11.8125C1.81763 11.8125 1.83388 11.8122 1.85975 11.8229C1.87151 11.8277 1.8815 11.8333 1.8891 11.8385C1.89655 11.8435 1.89955 11.8467 1.89851 11.8456L0.484299 13.2598C0.847142 13.6227 1.31268 13.8125 1.82227 13.8125V11.8125ZM1.91405 11.8615L1.09764 11.008L-0.347642 12.3904L0.468764 13.244L1.91405 11.8615ZM1.08211 10.9921C1.08107 10.9911 1.08422 10.9941 1.08927 11.0015C1.09442 11.0091 1.10001 11.0191 1.10485 11.0309C1.11551 11.0567 1.11523 11.073 1.11523 11.0684H-0.884766C-0.884766 11.5779 -0.69495 12.0435 -0.332107 12.4063L1.08211 10.9921ZM1.11523 11.0684C1.11523 11.0637 1.11551 11.08 1.10485 11.1058C1.10001 11.1176 1.09442 11.1276 1.08927 11.1352C1.08422 11.1426 1.08107 11.1456 1.08211 11.1446L-0.332107 9.73039C-0.69495 10.0932 -0.884766 10.5588 -0.884766 11.0684H1.11523ZM1.08211 11.1446L4.64461 7.58211L3.23039 6.16789L-0.332107 9.73039L1.08211 11.1446ZM4.64461 6.16789L1.08211 2.60539L-0.332107 4.01961L3.23039 7.58211L4.64461 6.16789ZM1.08211 2.60539C1.08107 2.60435 1.08422 2.60736 1.08927 2.61481C1.09442 2.62241 1.10001 2.63239 1.10485 2.64415C1.11551 2.67003 1.11523 2.68627 1.11523 2.68164H-0.884766C-0.884766 3.19123 -0.69495 3.65676 -0.332107 4.01961L1.08211 2.60539ZM1.11523 2.68164C1.11523 2.67701 1.11551 2.69325 1.10485 2.71913C1.10001 2.73089 1.09442 2.74087 1.08927 2.74847C1.08422 2.75592 1.08107 2.75893 1.08211 2.75789L-0.332107 1.34367C-0.69495 1.70652 -0.884766 2.17206 -0.884766 2.68164H1.11523ZM1.09764 2.742L1.91405 1.88849L0.468764 0.506043L-0.347642 1.35956L1.09764 2.742ZM1.89851 1.90437C1.89955 1.90333 1.89655 1.90649 1.8891 1.91154C1.8815 1.91668 1.87151 1.92228 1.85975 1.92712C1.83388 1.93778 1.81763 1.9375 1.82227 1.9375V-0.0625C1.31268 -0.0625 0.847142 0.127316 0.484299 0.490159L1.89851 1.90437ZM1.82227 1.9375C1.8269 1.9375 1.81066 1.93778 1.78478 1.92712C1.77302 1.92228 1.76303 1.91668 1.75544 1.91154C1.74798 1.90649 1.74498 1.90333 1.74602 1.90437L3.16023 0.490159C2.79739 0.127316 2.33185 -0.0625 1.82227 -0.0625V1.9375ZM1.74602 1.90437L6.79289 6.95125L8.20711 5.53703L3.16023 0.490159L1.74602 1.90437ZM6.79289 6.95125C6.79393 6.95229 6.79078 6.94928 6.78573 6.94183C6.78058 6.93423 6.77499 6.92425 6.77015 6.91249C6.75949 6.88661 6.75977 6.87037 6.75977 6.875H8.75977C8.75977 6.36541 8.56995 5.89988 8.20711 5.53703L6.79289 6.95125ZM6.75977 6.875C6.75977 6.87963 6.75949 6.86339 6.77015 6.83751C6.77499 6.82575 6.78058 6.81577 6.78573 6.80817C6.79078 6.80072 6.79393 6.79771 6.79289 6.79875L8.20711 8.21297C8.56995 7.85012 8.75977 7.38459 8.75977 6.875H6.75977ZM15.3321 5.53703L10.2852 0.490159L8.87102 1.90437L13.9179 6.95125L15.3321 5.53703ZM10.2852 0.490159C9.92239 0.127316 9.45685 -0.0625 8.94727 -0.0625V1.9375C8.9519 1.9375 8.93566 1.93778 8.90978 1.92712C8.89802 1.92228 8.88803 1.91668 8.88044 1.91154C8.87298 1.90649 8.86998 1.90333 8.87102 1.90437L10.2852 0.490159ZM8.94727 -0.0625C8.43768 -0.0625 7.97214 0.127316 7.6093 0.490159L9.02351 1.90437C9.02455 1.90333 9.02155 1.90649 9.0141 1.91154C9.0065 1.91668 8.99651 1.92228 8.98475 1.92712C8.95888 1.93778 8.94263 1.9375 8.94727 1.9375V-0.0625ZM7.59376 0.506043L6.77736 1.35956L8.22264 2.742L9.03905 1.88849L7.59376 0.506043ZM6.79289 1.34367C6.43005 1.70652 6.24023 2.17206 6.24023 2.68164H8.24023C8.24023 2.67701 8.24051 2.69325 8.22985 2.71913C8.22501 2.73089 8.21942 2.74087 8.21427 2.74847C8.20922 2.75592 8.20607 2.75893 8.20711 2.75789L6.79289 1.34367ZM6.24023 2.68164C6.24023 3.193 6.434 3.67875 6.84921 4.03465L8.15079 2.51613C8.17198 2.53429 8.20092 2.56816 8.22133 2.61481C8.2408 2.65931 8.24023 2.68732 8.24023 2.68164H6.24023ZM6.78924 3.97882L10.3517 7.57843L11.7733 6.17157L8.21076 2.57196L6.78924 3.97882ZM10.3554 6.16789L6.79289 9.73039L8.20711 11.1446L11.7696 7.58211L10.3554 6.16789ZM6.79289 9.73039C6.43005 10.0932 6.24023 10.5588 6.24023 11.0684H8.24023C8.24023 11.0637 8.24051 11.08 8.22985 11.1058C8.22501 11.1176 8.21942 11.1276 8.21427 11.1352C8.20922 11.1426 8.20607 11.1456 8.20711 11.1446L6.79289 9.73039ZM6.24023 11.0684C6.24023 11.5779 6.43005 12.0435 6.79289 12.4063L8.20711 10.9921C8.20607 10.9911 8.20922 10.9941 8.21427 11.0015C8.21942 11.0091 8.22501 11.0191 8.22985 11.0309C8.24051 11.0567 8.24023 11.073 8.24023 11.0684H6.24023ZM6.77736 12.3904L7.59376 13.244L9.03905 11.8615L8.22264 11.008L6.77736 12.3904ZM7.6093 13.2598C7.97214 13.6227 8.43768 13.8125 8.94727 13.8125V11.8125C8.94263 11.8125 8.95888 11.8122 8.98475 11.8229C8.99651 11.8277 9.0065 11.8333 9.0141 11.8385C9.02155 11.8435 9.02455 11.8467 9.02351 11.8456L7.6093 13.2598ZM8.94727 13.8125C9.45685 13.8125 9.92239 13.6227 10.2852 13.2598L8.87102 11.8456C8.86998 11.8467 8.87298 11.8435 8.88044 11.8385C8.88803 11.8333 8.89802 11.8277 8.90978 11.8229C8.93566 11.8122 8.9519 11.8125 8.94727 11.8125V13.8125ZM10.2852 13.2598L15.3321 8.21297L13.9179 6.79875L8.87102 11.8456L10.2852 13.2598ZM15.3321 8.21297C15.695 7.85012 15.8848 7.38459 15.8848 6.875H13.8848C13.8848 6.87963 13.8845 6.86339 13.8951 6.83751C13.9 6.82575 13.9056 6.81577 13.9107 6.80817C13.9158 6.80072 13.9189 6.79771 13.9179 6.79875L15.3321 8.21297ZM15.8848 6.875C15.8848 6.36541 15.695 5.89988 15.3321 5.53703L13.9179 6.95125C13.9189 6.95229 13.9158 6.94928 13.9107 6.94183C13.9056 6.93423 13.9 6.92425 13.8951 6.91249C13.8845 6.88661 13.8848 6.87037 13.8848 6.875H15.8848Z" fill="white"/>
</svg>
