<svg width="34" height="34" viewBox="0 0 34 34" fill="none" xmlns="http://www.w3.org/2000/svg">
<path d="M1.22452 2.69837H4.73478L9.73492 22.6213C9.87775 23.206 10.3676 23.6107 10.9186 23.6107H26.2863C26.7761 23.6107 27.2047 23.2959 27.4087 22.8012L33.0007 8.63478C33.164 8.20756 33.1231 7.73535 32.8986 7.35305C32.6741 6.97076 32.2864 6.74592 31.8782 6.74592H14.8983C14.2248 6.74592 13.6738 7.35305 13.6738 8.0951C13.6738 8.83715 14.2248 9.44429 14.8983 9.44429H30.0007L25.47 20.9123H11.837L6.83692 0.989428C6.69408 0.404755 6.20427 0 5.65324 0H1.22452C0.551033 0 0 0.607133 0 1.34918C0 2.09123 0.551033 2.69837 1.22452 2.69837Z" fill="black"/>
<path d="M9.75534 33.1C11.286 33.1 12.5309 31.7283 12.5309 30.0418C12.5309 28.3553 11.286 26.9837 9.75534 26.9837C8.2247 26.9837 6.9798 28.3553 6.9798 30.0418C6.9798 31.7282 8.2247 33.1 9.75534 33.1Z" fill="black"/>
<path d="M27.1028 33.0999C27.164 33.0999 27.2456 33.0999 27.3068 33.0999C28.0415 33.0325 28.715 32.6727 29.2048 32.0431C29.6946 31.4359 29.9191 30.6489 29.8783 29.8169C29.7762 28.153 28.4497 26.8713 26.9191 26.9837C25.3885 27.0962 24.2456 28.5802 24.3476 30.2442C24.4496 31.8407 25.6538 33.0999 27.1028 33.0999Z" fill="black"/>
</svg>
